<mxfile host="app.diagrams.net" modified="2023-10-27T17:36:27.872Z" agent="Mozilla/5.0 (Windows NT 10.0; Win64; x64) AppleWebKit/537.36 (KHTML, like Gecko) Chrome/118.0.0.0 Safari/537.36" version="22.0.8" etag="ig6hg53fMV3bJ-G3Q3ap" type="github">
  <diagram name="Страница — 1" id="MyXJPD0mudHP__JJlh-6">
    <mxGraphModel>
      <root>
        <mxCell id="0" />
        <mxCell id="1" parent="0" />
      </root>
    </mxGraphModel>
  </diagram>
</mxfile>
